<?xml version="1.0" standalone="no"?>
<!DOCTYPE svg PUBLIC "-//W3C//DTD SVG 20010904//EN"
 "http://www.w3.org/TR/2001/REC-SVG-20010904/DTD/svg10.dtd">
<svg version="1.0" xmlns="http://www.w3.org/2000/svg"
 width="600.000000pt" height="600.000000pt" viewBox="0 0 600.000000 600.000000"
 preserveAspectRatio="xMidYMid meet">

<g transform="translate(0.000000,600.000000) scale(0.100000,-0.100000)"
fill="#000000" stroke="none">
<path d="M2940 5579 c-57 -21 -71 -24 -250 -59 -58 -11 -127 -28 -155 -39 -27
-10 -83 -24 -124 -30 -41 -6 -89 -20 -106 -31 -18 -11 -46 -20 -63 -20 -17 0
-43 -7 -59 -14 -15 -8 -57 -26 -93 -39 -42 -16 -68 -32 -75 -46 -5 -12 -54
-49 -108 -83 -65 -40 -128 -91 -185 -148 -48 -48 -100 -95 -117 -104 -16 -10
-22 -15 -13 -12 25 8 66 -8 49 -19 -8 -4 -16 -2 -21 5 -6 9 -9 9 -15 0 -4 -6
-4 -14 -1 -17 3 -3 -10 -24 -29 -46 -19 -22 -35 -47 -35 -54 0 -7 -4 -13 -8
-13 -5 0 -15 -19 -23 -42 -7 -24 -26 -63 -41 -87 -15 -25 -28 -48 -28 -53 0
-4 -13 -34 -29 -67 -22 -47 -27 -67 -22 -93 5 -23 2 -42 -11 -65 -12 -23 -17
-50 -15 -92 2 -59 2 -60 22 -41 20 19 20 19 19 -43 -1 -34 2 -66 6 -72 4 -5
10 -30 13 -54 3 -27 13 -51 25 -60 11 -9 25 -27 32 -39 6 -13 14 -22 16 -19 5
5 -20 107 -34 134 -11 22 -3 115 9 108 11 -8 37 -66 37 -85 0 -20 9 -92 21
-160 18 -112 31 -208 42 -320 6 -63 12 -130 14 -147 3 -32 2 -33 -35 -33 l-39
0 52 -49 52 -50 3 50 c2 27 7 49 13 49 5 0 9 -7 9 -15 0 -23 13 -18 42 17 15
18 28 28 28 21 0 -6 -7 -18 -15 -27 -16 -16 -19 -26 -7 -26 4 0 18 16 31 36
15 21 27 31 31 24 16 -26 30 18 46 145 3 22 8 51 11 65 4 14 8 36 9 50 2 13
10 30 19 36 8 6 15 16 15 22 0 5 7 13 16 16 9 4 14 13 10 21 -4 10 3 20 20 27
19 9 24 17 20 34 -4 16 1 26 20 39 21 14 24 19 13 26 -8 5 -9 9 -3 9 6 0 18
16 27 35 9 19 21 35 27 35 5 0 10 7 10 15 0 8 6 25 13 38 6 12 13 23 14 25 5
11 41 7 56 -6 16 -15 17 -14 10 4 -4 10 -16 27 -28 36 -11 10 -15 17 -9 18 5
0 15 -5 22 -12 9 -9 12 -9 12 1 0 14 25 10 25 -5 1 -18 24 -49 31 -41 5 5 4
11 -2 15 -6 4 -8 18 -4 32 l6 25 18 -30 c9 -16 15 -22 12 -12 -9 29 11 19 24
-13 7 -16 9 -41 6 -56 -4 -14 -3 -31 3 -37 12 -15 24 -159 14 -173 -5 -5 -25
-18 -46 -28 -21 -9 -52 -33 -70 -53 -18 -20 -45 -49 -62 -66 -19 -18 -23 -27
-13 -24 10 4 17 3 17 -1 -3 -18 2 -24 14 -14 17 13 116 34 129 26 18 -12 302
-3 315 9 3 4 12 2 20 -4 10 -9 13 -7 13 6 0 11 5 15 14 12 8 -3 31 -9 50 -13
20 -3 39 -10 42 -15 3 -5 12 -9 20 -9 8 0 13 4 10 9 -8 12 55 19 90 9 20 -5
31 -3 41 10 8 11 16 13 20 7 12 -15 38 -12 56 7 19 18 23 63 7 73 -5 3 -10 16
-10 28 -1 34 -42 59 -76 47 -28 -11 -43 -1 -44 28 0 17 -17 15 -28 -4 -6 -11
-12 -13 -16 -6 -4 6 -12 9 -19 7 -7 -3 -21 7 -31 22 -19 25 -19 26 -1 39 18
13 17 14 -7 14 -13 0 -33 9 -43 20 -15 17 -16 20 -3 20 9 0 19 10 22 23 6 21
7 21 20 4 12 -15 18 -16 35 -7 17 8 21 8 21 -3 0 -8 9 -22 20 -32 18 -16 20
-16 20 -2 0 10 5 14 15 11 17 -7 21 21 5 31 -16 10 -12 25 5 19 8 -4 15 -1 15
5 0 6 -4 11 -9 11 -4 0 -6 11 -3 25 3 20 7 23 18 14 7 -6 18 -8 24 -4 12 7 52
-31 65 -61 8 -18 8 -18 12 -1 6 24 15 21 38 -15 23 -36 49 -51 38 -22 -4 10
10 2 30 -18 20 -21 37 -32 37 -25 0 6 7 2 15 -10 8 -11 24 -23 35 -26 21 -5
28 7 10 18 -5 3 -10 11 -10 17 0 6 9 3 20 -7 11 -10 20 -15 20 -10 0 4 7 2 15
-5 18 -15 19 -7 4 23 -10 22 -10 22 10 0 19 -23 38 -32 26 -13 -3 6 -1 10 6
10 8 0 6 7 -5 19 -20 22 -14 43 9 35 23 -9 49 -55 35 -64 -6 -4 2 -7 19 -6 35
1 35 1 21 26 -15 29 28 35 57 8 24 -22 33 -12 11 11 -11 11 -10 12 2 6 8 -4
23 -15 33 -23 19 -17 57 -24 57 -10 0 13 17 9 34 -8 25 -25 19 -41 -23 -57
-22 -9 -46 -25 -54 -37 -7 -11 -16 -17 -20 -14 -9 10 -47 -16 -47 -32 0 -11
-6 -14 -16 -10 -13 5 -15 1 -11 -21 4 -16 4 -22 1 -15 -11 23 -31 12 -42 -25
-12 -38 0 -79 19 -68 5 4 9 1 9 -4 0 -6 7 -11 15 -11 8 0 15 4 15 8 0 9 103
32 146 32 16 0 42 -7 57 -15 15 -8 25 -11 23 -6 -3 4 16 8 42 8 26 0 54 4 63
7 18 8 35 -19 18 -29 -5 -4 -7 -11 -4 -16 4 -5 1 -9 -6 -9 -7 0 -10 -3 -7 -6
4 -3 15 -1 25 4 12 7 25 7 34 1 11 -7 9 -9 -10 -9 -20 0 -21 -2 -11 -15 7 -8
21 -15 32 -15 10 0 16 -5 13 -10 -4 -6 -18 -10 -33 -9 -15 0 -67 -5 -117 -11
-49 -7 -101 -12 -114 -11 -12 0 -35 -6 -50 -15 -27 -16 -28 -15 -59 15 -28 29
-34 31 -54 19 -13 -7 -27 -11 -32 -10 -17 5 -46 -10 -46 -24 0 -8 -14 -20 -30
-26 -17 -5 -30 -15 -29 -22 1 -6 1 -22 0 -35 -1 -19 -5 -23 -27 -18 -19 3 -24
1 -20 -10 4 -9 1 -13 -6 -11 -31 11 -94 -111 -66 -128 5 -3 7 -12 5 -18 -3 -7
4 -18 15 -25 16 -10 19 -19 14 -49 -7 -40 -7 -46 -4 -97 1 -19 5 -35 10 -35 5
0 4 -9 -2 -20 -8 -16 -8 -22 3 -26 8 -3 18 -4 23 -2 5 1 19 -4 32 -11 13 -7
30 -10 37 -7 7 2 19 -2 26 -10 21 -25 85 -54 140 -62 47 -6 52 -10 66 -45 18
-44 13 -63 -21 -78 -20 -9 -33 -8 -68 10 -25 11 -54 21 -66 21 -37 0 -91 -27
-139 -70 -25 -22 -50 -40 -54 -40 -5 0 -9 -4 -9 -9 0 -4 19 -11 41 -14 23 -3
45 -11 49 -17 4 -6 13 -10 20 -8 10 2 14 -7 15 -28 0 -32 -9 -46 -35 -53 -33
-8 -157 -2 -185 9 -16 7 -42 14 -57 16 -22 3 -28 0 -28 -16 0 -13 7 -20 19
-20 18 0 48 -26 40 -34 -2 -2 -21 -11 -41 -19 -42 -18 -50 -42 -17 -52 12 -4
18 -12 15 -21 -7 -18 21 -31 36 -16 6 6 17 8 24 5 8 -3 21 0 29 7 12 10 15 7
21 -14 8 -31 45 -44 86 -28 15 5 36 8 46 5 10 -2 24 3 31 11 22 26 86 21 109
-8 16 -21 24 -24 53 -17 31 7 35 6 34 -13 -1 -62 -79 -129 -108 -93 -15 18
-68 29 -66 13 3 -27 -3 -35 -33 -45 -18 -6 -37 -11 -43 -12 -5 -1 -17 -5 -26
-10 -9 -4 -20 -4 -25 1 -6 6 -24 5 -47 -2 -35 -11 -39 -9 -65 15 -32 30 -42
33 -42 13 0 -30 -78 -36 -103 -8 -8 9 -17 28 -19 42 -4 24 -5 23 -22 -13 -14
-32 -19 -36 -36 -27 -10 5 -22 19 -25 30 -4 12 -15 20 -28 20 -37 0 -69 28
-65 58 2 20 9 27 26 27 12 0 29 11 38 23 8 12 25 22 37 23 19 0 20 1 4 8 -10
4 -59 6 -108 6 -49 0 -89 0 -89 1 0 2 4 14 10 28 10 27 -8 56 -36 56 -8 0 -14
5 -14 10 0 33 -72 -26 -98 -80 -7 -14 -18 -33 -24 -43 -11 -14 -10 -19 1 -26
9 -6 10 -11 2 -15 -16 -11 -14 -39 3 -33 8 3 20 0 26 -8 13 -15 39 -10 56 11
9 11 18 8 48 -20 45 -43 113 -98 148 -120 26 -17 27 -17 40 10 15 31 38 43 38
21 0 -9 -3 -17 -7 -20 -5 -2 -2 -2 4 -1 7 2 17 -4 22 -13 6 -11 24 -17 51 -19
26 -1 46 -8 54 -20 10 -13 28 -18 70 -18 63 -1 70 -8 27 -26 -34 -14 -51 -43
-23 -38 26 4 30 -42 4 -49 -11 -3 -26 -22 -35 -45 -14 -34 -14 -39 -2 -34 8 3
22 9 30 12 10 4 15 0 15 -12 0 -16 8 -19 55 -20 39 0 55 3 55 13 0 7 9 13 20
13 11 0 23 7 27 15 4 11 14 14 34 11 16 -2 31 0 34 5 12 18 70 3 82 -22 7 -13
13 -18 13 -10 0 11 3 11 16 0 13 -10 17 -10 25 2 5 8 9 21 10 29 0 8 2 25 3
37 2 14 -2 19 -11 16 -7 -3 -13 0 -13 6 0 7 7 14 15 17 8 4 13 9 10 14 -2 4
15 13 38 21 23 7 48 19 55 26 7 7 20 13 28 13 8 0 14 4 14 9 0 5 9 7 20 4 13
-4 22 1 26 13 9 32 19 47 29 46 6 -1 16 10 23 24 7 13 19 24 27 24 8 0 15 5
15 10 0 18 41 52 56 46 8 -3 14 1 14 9 0 14 11 19 36 16 7 -1 15 6 18 15 4 11
13 14 31 10 14 -4 25 -2 25 4 0 5 7 10 16 10 8 0 13 4 10 9 -11 17 6 70 20 64
27 -10 -31 107 -64 130 -17 12 -32 27 -32 33 0 6 -15 11 -34 12 -19 1 -38 2
-42 3 -18 3 -54 -14 -54 -25 0 -6 -5 -3 -11 7 -6 9 -7 27 -4 38 5 14 3 19 -3
15 -6 -3 -13 -2 -17 4 -4 6 -11 8 -16 4 -5 -3 -15 -1 -22 4 -7 5 -24 12 -39
16 -20 4 -25 11 -21 25 3 11 11 17 17 15 8 -3 23 16 38 44 20 38 23 53 15 67
-7 13 -7 20 0 22 14 5 -9 53 -37 78 -11 10 -20 24 -20 30 0 7 -7 18 -15 25 -8
7 -15 21 -15 31 0 15 8 19 38 20 20 1 41 1 46 0 5 -1 5 6 2 16 -6 14 -5 16 5
6 7 -7 22 -13 33 -13 10 0 16 3 13 7 -4 3 1 12 11 20 16 13 15 14 -4 10 -18
-4 -20 -1 -16 16 4 14 1 18 -7 13 -12 -8 -52 14 -80 42 -11 10 -16 11 -21 1
-9 -14 -30 -3 -30 16 0 20 130 12 164 -10 14 -9 29 -14 34 -11 5 3 22 -4 37
-16 22 -17 29 -19 36 -7 8 12 10 12 19 -1 6 -10 10 -11 10 -2 0 6 5 12 10 12
6 0 10 -6 10 -14 0 -16 63 -31 68 -16 2 6 16 1 32 -10 15 -11 38 -21 51 -23
13 -2 24 -10 24 -18 0 -20 23 -42 35 -34 6 4 17 2 25 -5 10 -8 15 -8 21 1 5 8
12 5 24 -11 18 -23 43 -20 34 4 -4 10 2 12 20 9 23 -5 24 -3 21 31 -3 37 7 52
25 41 8 -5 8 -11 0 -20 -8 -9 -4 -11 16 -7 17 3 22 8 15 15 -6 6 -6 18 -1 32
5 13 6 26 2 30 -3 3 0 4 8 0 12 -4 16 5 18 36 3 48 -26 180 -42 191 -8 5 -7 8
2 8 6 0 12 7 12 15 0 8 -8 15 -18 15 -9 0 -22 10 -27 22 -11 23 -70 47 -62 25
2 -7 12 -11 22 -9 10 2 14 -1 10 -7 -10 -18 -43 -13 -55 8 -5 11 -19 22 -29
26 -11 3 -23 15 -26 25 -4 11 -12 17 -21 13 -10 -4 -12 0 -8 11 3 9 1 23 -6
31 -8 10 -9 15 -2 15 6 0 14 -5 17 -10 4 -6 10 -8 15 -5 8 5 79 -23 90 -36 3
-3 18 -9 34 -13 l29 -7 -17 25 c-16 26 -16 26 13 26 16 0 33 -4 36 -10 3 -5
11 -10 17 -10 6 0 3 12 -7 26 -9 14 -14 29 -10 32 3 4 10 0 15 -8 7 -11 10 -8
10 14 0 20 -16 49 -55 96 -38 48 -48 66 -35 63 17 -5 19 0 18 33 0 22 -5 45
-11 52 -6 8 -6 12 2 12 6 0 15 10 20 22 8 22 9 21 27 -12 10 -19 19 -37 19
-40 12 -48 19 -60 36 -60 12 0 19 -7 19 -18 0 -10 6 -27 14 -37 8 -11 19 -56
26 -100 6 -44 18 -118 26 -165 8 -47 14 -125 14 -175 0 -96 7 -135 22 -135 5
0 6 5 2 11 -4 8 0 9 15 4 14 -4 23 -2 27 9 3 8 18 18 32 21 18 4 42 27 71 66
49 68 46 79 -23 79 -32 0 -37 3 -31 18 18 44 24 79 29 184 4 62 8 133 11 158
12 119 19 378 16 595 -1 132 -2 270 -2 307 0 53 -5 79 -29 131 -16 36 -34 68
-39 71 -5 4 -17 29 -26 57 -10 28 -26 60 -35 69 -25 25 -70 107 -63 114 11 11
-29 45 -93 81 -35 20 -66 40 -69 45 -14 23 -208 160 -226 160 -17 0 -93 30
-129 51 -44 26 -107 50 -186 69 -49 12 -100 30 -114 40 -32 22 -47 26 -150 45
-126 22 -291 19 -360 -6z m-1554 -1267 c-12 -11 -18 7 -10 30 l8 23 4 -23 c2
-13 1 -26 -2 -30z m728 -71 c-5 -11 -9 -4 -14 24 -3 22 -4 44 -1 50 8 16 23
-56 15 -74z m43 -13 c-3 -8 -6 -5 -6 6 -1 11 2 17 5 13 3 -3 4 -12 1 -19z
m1253 -199 c0 -14 -5 -11 -31 17 l-24 27 28 -18 c15 -9 27 -21 27 -26z m-780
-45 c0 -8 -4 -14 -10 -14 -5 0 -10 9 -10 21 0 11 5 17 10 14 6 -3 10 -13 10
-21z m227 -106 c-3 -8 -6 -5 -6 6 -1 11 2 17 5 13 3 -3 4 -12 1 -19z m443 -98
c0 -5 -2 -10 -4 -10 -3 0 -8 5 -11 10 -3 6 -1 10 4 10 6 0 11 -4 11 -10z m624
-171 c-8 -13 -24 -1 -24 18 0 13 3 13 15 3 8 -7 12 -16 9 -21z m-87 5 c-3 -3
-12 -4 -19 -1 -8 3 -5 6 6 6 11 1 17 -2 13 -5z m-173 -24 c25 -9 38 -36 14
-28 -7 3 -24 -1 -37 -8 -21 -11 -28 -11 -41 0 -8 7 -22 16 -30 20 -8 3 -5 4 8
2 12 -2 22 0 22 6 0 5 4 7 9 3 5 -3 12 -1 16 5 8 12 8 12 39 0z m-136 -132 c3
-14 -2 -15 -24 -9 -37 10 -41 27 -7 26 18 0 29 -6 31 -17z m177 -83 c6 -2 -12
-4 -40 -4 -27 0 -56 3 -63 8 -13 8 79 4 103 -4z m655 -70 c0 -3 -9 -15 -20
-27 -15 -16 -20 -18 -20 -7 0 8 5 20 12 27 12 12 28 16 28 7z m-1190 -705 c0
-6 -21 -20 -47 -31 -40 -17 -53 -19 -79 -10 -17 6 -37 11 -46 11 -9 0 -19 7
-22 16 -5 14 1 15 51 10 32 -3 74 -2 93 3 48 12 50 12 50 1z m-81 -94 c14 -17
0 -29 -23 -20 -17 7 -20 16 -9 27 10 11 19 8 32 -7z m307 -131 c-10 -8 -23
-12 -29 -8 -11 7 12 23 33 23 12 -1 11 -4 -4 -15z m-294 -159 c10 3 18 1 18
-4 0 -5 -10 -12 -22 -16 -17 -4 -28 1 -40 17 -25 31 -22 42 4 17 13 -12 29
-18 40 -14z m168 15 c0 -5 -7 -11 -15 -15 -15 -5 -20 5 -8 17 9 10 23 9 23 -2z
m-60 -21 c0 -5 -4 -10 -10 -10 -5 0 -10 5 -10 10 0 6 5 10 10 10 6 0 10 -4 10
-10z m-112 -82 c-2 -7 3 -12 10 -10 6 1 12 -2 12 -8 0 -5 -6 -10 -12 -10 -7
-1 -46 -3 -85 -6 -47 -4 -73 -2 -73 4 0 14 38 26 77 23 17 -1 34 3 38 9 9 14
35 12 33 -2z m158 -10 c-4 -23 -22 -26 -40 -8 -8 8 13 22 41 29 2 1 1 -9 -1
-21z"/>
<path d="M1362 4220 c0 -14 2 -19 5 -12 2 6 2 18 0 25 -3 6 -5 1 -5 -13z"/>
<path d="M2690 4035 c0 -8 5 -15 10 -15 6 0 10 7 10 15 0 8 -4 15 -10 15 -5 0
-10 -7 -10 -15z"/>
<path d="M2425 3720 c3 -5 11 -10 16 -10 6 0 7 5 4 10 -3 6 -11 10 -16 10 -6
0 -7 -4 -4 -10z"/>
<path d="M2590 3722 c0 -6 6 -12 13 -15 8 -3 6 -9 -7 -19 -15 -12 -16 -18 -7
-36 16 -31 15 -32 -39 -32 -27 0 -50 -4 -50 -10 0 -5 7 -10 15 -10 28 0 15
-18 -17 -25 -18 -4 -35 -10 -38 -14 -24 -30 -88 -52 -180 -63 -87 -10 -130
-28 -130 -53 0 -9 17 -15 58 -19 126 -12 318 -39 331 -46 10 -5 5 -10 -17 -15
-18 -3 -29 -11 -26 -16 3 -6 12 -8 20 -5 8 3 24 2 36 -3 19 -7 14 -10 -32 -22
-30 -7 -87 -13 -127 -14 -68 0 -72 -1 -76 -24 -7 -38 2 -51 37 -52 17 0 46 -1
64 -2 19 -1 38 4 44 11 6 6 23 12 39 12 15 0 31 5 34 10 3 6 17 10 30 10 13 0
25 5 27 11 2 6 20 11 41 11 20 0 37 5 37 10 0 6 7 7 15 4 16 -6 21 -4 82 28
17 9 38 16 46 16 19 0 48 42 66 93 14 43 7 79 -15 70 -9 -3 -19 7 -29 31 -17
41 -45 76 -60 76 -5 0 -41 26 -79 56 -38 31 -66 49 -63 41 3 -9 2 -19 -4 -22
-5 -4 -7 -11 -4 -16 4 -5 2 -9 -4 -9 -5 0 -9 12 -8 26 1 15 -4 29 -10 31 -7 3
-13 0 -13 -5z m222 -244 c10 -15 12 -30 7 -43 -7 -18 -8 -18 -8 4 -1 14 -8 33
-18 43 -9 10 -11 18 -6 18 6 0 17 -10 25 -22z m-382 -18 c0 -5 -4 -10 -10 -10
-5 0 -10 5 -10 10 0 6 5 10 10 10 6 0 10 -4 10 -10z"/>
<path d="M2445 3610 c3 -5 15 -10 26 -10 11 0 17 5 14 10 -3 6 -15 10 -26 10
-11 0 -17 -4 -14 -10z"/>
<path d="M3095 3540 c-4 -6 -3 -16 3 -22 6 -6 12 -6 17 2 4 6 3 16 -3 22 -6 6
-12 6 -17 -2z"/>
<path d="M1458 3393 c-76 -82 -93 -189 -55 -353 l24 -105 6 99 c4 65 3 102 -4
106 -7 5 -6 15 1 34 5 15 10 38 10 52 0 13 4 32 9 42 5 9 18 38 28 64 10 27
21 48 26 48 4 0 7 9 7 20 0 28 -22 25 -52 -7z"/>
<path d="M4471 3296 c-12 -18 -21 -36 -21 -40 0 -4 -18 -39 -40 -78 -36 -63
-40 -75 -30 -101 10 -31 5 -53 -6 -23 -10 25 -22 19 -39 -20 -21 -51 -30 -136
-17 -161 9 -15 7 -28 -8 -55 -10 -20 -24 -62 -30 -94 -6 -33 -19 -101 -29
-151 -18 -93 -16 -102 20 -83 20 11 26 1 8 -17 -7 -7 -1 -18 22 -37 l32 -27
19 32 c11 18 20 47 21 65 2 30 3 31 19 17 10 -9 20 -24 23 -34 5 -14 15 -3 41
48 19 36 33 71 30 79 -3 7 2 27 10 43 8 17 19 69 24 117 6 60 14 90 25 98 13
9 17 40 22 157 6 147 2 175 -34 262 -20 46 -35 47 -62 3z m-51 -276 c0 -5 -4
-10 -9 -10 -6 0 -13 5 -16 10 -3 6 1 10 9 10 9 0 16 -4 16 -10z m109 -75 c0
-31 -2 -36 -9 -20 -13 29 -13 94 0 75 5 -8 9 -33 9 -55z m-159 -345 c0 -5 -5
-10 -11 -10 -5 0 -7 5 -4 10 3 6 8 10 11 10 2 0 4 -4 4 -10z"/>
<path d="M1627 3122 c-10 -10 -17 -35 -17 -56 0 -24 -5 -39 -16 -43 -8 -3 -20
-16 -25 -29 -6 -16 -16 -24 -33 -24 -30 0 -42 -16 -48 -65 -10 -77 54 -155
128 -155 23 0 43 -9 66 -31 27 -25 39 -29 67 -25 47 7 58 20 41 50 -9 17 -25
27 -52 31 -52 9 -86 41 -97 92 -8 38 -6 47 20 89 25 38 32 44 44 34 21 -18 18
-2 -5 27 -11 14 -20 36 -20 49 0 29 -17 74 -28 74 -5 0 -16 -8 -25 -18z"/>
<path d="M2786 3075 c-8 -8 -19 -15 -25 -15 -6 0 -11 -5 -11 -10 0 -6 11 -8
25 -5 14 3 36 7 50 10 14 3 25 12 25 20 0 20 -44 20 -64 0z"/>
<path d="M4318 3055 c-3 -13 -2 -22 2 -20 11 7 20 45 10 45 -4 0 -10 -11 -12
-25z"/>
<path d="M4026 3011 c-4 -6 3 -15 14 -21 23 -12 27 2 6 19 -9 8 -16 8 -20 2z"/>
<path d="M3240 2980 c0 -5 5 -10 10 -10 6 0 10 5 10 10 0 6 -4 10 -10 10 -5 0
-10 -4 -10 -10z"/>
<path d="M1711 2944 c0 -11 3 -14 6 -6 3 7 2 16 -1 19 -3 4 -6 -2 -5 -13z"/>
<path d="M2809 2865 c-15 -8 -29 -22 -33 -31 -5 -13 -14 -15 -41 -11 -19 3
-35 4 -35 2 0 -9 100 -55 120 -55 11 0 23 -7 26 -15 9 -22 47 -18 62 5 11 18
10 20 -8 20 -27 0 -80 27 -80 41 0 7 27 8 80 3 94 -8 104 3 31 35 -58 24 -86
26 -122 6z"/>
<path d="M4301 2854 c0 -11 3 -14 6 -6 3 7 2 16 -1 19 -3 4 -6 -2 -5 -13z"/>
<path d="M2800 2649 c-14 -25 -14 -26 25 -27 28 -1 35 2 35 17 0 26 -47 34
-60 10z"/>
<path d="M2682 2646 c4 -24 48 -43 48 -20 0 9 -6 14 -12 11 -7 -2 -19 3 -26
12 -11 14 -12 14 -10 -3z"/>
<path d="M1804 2635 c-3 -8 1 -24 10 -37 9 -12 16 -32 16 -45 0 -12 5 -25 10
-28 14 -8 13 54 -1 94 -12 33 -26 40 -35 16z"/>
<path d="M1622 2588 c2 -13 8 -23 13 -23 6 0 11 10 13 23 2 15 -2 22 -13 22
-11 0 -15 -7 -13 -22z"/>
<path d="M2752 2483 c12 -14 72 -18 64 -4 -3 5 -21 11 -40 13 -28 3 -33 1 -24
-9z"/>
<path d="M3340 2119 c0 -7 8 -17 17 -24 18 -13 43 -9 43 7 0 5 -4 7 -9 3 -5
-3 -16 2 -24 10 -18 18 -27 19 -27 4z"/>
<path d="M4060 1798 c-18 -115 -14 -109 -60 -90 -22 10 -40 24 -40 32 0 13 -1
13 -10 0 -6 -10 -6 -16 0 -18 13 -5 13 -22 1 -22 -5 0 -14 14 -20 30 -5 17
-15 30 -21 30 -6 0 -9 -4 -6 -9 3 -5 -1 -12 -10 -15 -22 -9 -26 -8 -19 5 4 6
-2 13 -14 16 -12 3 -21 9 -21 14 0 5 -4 9 -10 9 -5 0 -10 -7 -10 -15 0 -8 -4
-15 -10 -15 -5 0 -10 7 -10 15 0 23 -18 18 -46 -12 -20 -22 -23 -23 -15 -6 8
16 7 22 -5 27 -8 3 -17 -1 -20 -8 -3 -8 -21 -17 -40 -20 -21 -5 -34 -13 -34
-23 0 -9 -6 -13 -14 -10 -8 3 -20 -1 -26 -9 -7 -8 -17 -14 -22 -14 -5 0 -25
-16 -45 -35 -38 -37 -93 -49 -93 -21 0 21 21 31 31 15 6 -10 9 -11 9 -1 0 6 7
12 15 12 8 0 22 11 30 24 9 13 25 26 36 29 12 3 18 10 15 16 -3 5 2 12 11 14
17 4 17 5 0 6 -9 0 -34 -8 -54 -19 -21 -11 -46 -20 -55 -20 -10 0 -18 -7 -18
-15 0 -8 -9 -15 -19 -15 -11 0 -23 -5 -26 -10 -4 -6 -15 -8 -26 -5 -10 4 -19
2 -19 -4 0 -6 -11 -13 -25 -17 -14 -3 -25 -9 -25 -13 0 -3 -12 -7 -27 -8 -15
0 -29 -6 -31 -12 -2 -6 -8 -9 -13 -6 -5 3 -17 1 -28 -5 -13 -7 -22 -7 -26 0
-9 15 -45 12 -45 -4 0 -26 32 -28 140 -10 19 3 49 7 65 8 19 2 31 9 33 19 2
10 13 17 24 17 14 0 18 -5 14 -15 -3 -8 2 -18 11 -23 14 -8 14 -10 -1 -15 -9
-4 -16 -2 -16 3 0 6 -7 10 -15 10 -8 0 -15 -8 -15 -18 0 -14 -9 -19 -42 -21
-44 -2 -68 -15 -54 -28 4 -4 17 -2 29 5 20 12 20 11 -2 -8 -13 -11 -35 -20
-50 -20 -15 0 -31 -4 -36 -8 -14 -12 -83 -31 -136 -37 -24 -3 -59 -10 -76 -15
-20 -5 -35 -5 -39 1 -7 13 -51 11 -60 -2 -4 -8 -9 -7 -15 2 -6 9 -9 10 -9 2 0
-6 -14 -14 -31 -18 -27 -6 -29 -9 -17 -21 8 -8 29 -16 48 -18 19 -2 44 -7 55
-11 10 -5 83 -9 162 -9 79 -1 143 -5 143 -10 0 -5 7 -2 16 5 14 11 18 11 28
-3 10 -14 14 -14 31 -2 14 11 21 11 26 2 4 -7 4 -17 -1 -23 -20 -24 11 -37 88
-38 29 0 42 -5 42 -14 0 -9 -5 -11 -12 -7 -10 6 -10 5 -1 -8 17 -21 6 -29 -24
-17 -24 9 -25 8 -21 -20 3 -21 0 -31 -11 -35 -37 -14 -62 -34 -52 -40 6 -4 17
-4 24 1 6 4 32 9 57 10 36 2 40 0 22 -7 -12 -5 -25 -16 -28 -25 -4 -8 -12 -15
-20 -15 -8 0 -14 -6 -14 -12 0 -12 -101 -66 -155 -83 -20 -7 -20 -7 -1 -14 14
-5 16 -10 8 -15 -7 -4 -10 -11 -7 -16 3 -4 -2 -11 -11 -14 -15 -6 -15 -8 1
-26 16 -18 16 -20 1 -35 -19 -20 -21 -29 -3 -19 7 5 6 0 -3 -10 -8 -11 -13
-29 -12 -42 3 -19 -1 -24 -17 -24 -12 0 -21 -4 -21 -9 0 -11 29 -23 40 -16 4
3 11 -2 14 -11 4 -9 13 -14 21 -10 8 3 15 1 15 -5 0 -6 5 -7 12 -3 6 4 8 3 4
-4 -3 -6 -19 -13 -35 -17 -31 -7 -58 -31 -47 -42 3 -3 6 -1 6 5 0 6 13 10 30
9 34 -2 34 -2 20 -28 -6 -10 -7 -19 -2 -19 5 0 15 11 22 25 7 14 19 25 27 25
15 0 17 -13 4 -38 -5 -9 -12 -25 -15 -34 -3 -11 -15 -18 -29 -18 -13 0 -32
-10 -43 -22 -17 -19 -17 -21 -1 -15 49 19 52 19 31 0 -31 -28 -22 -100 17
-144 35 -39 29 -52 -8 -18 -14 13 -23 19 -19 12 7 -12 -50 -123 -63 -123 -4 0
-21 -13 -37 -30 -39 -39 -74 -40 -74 -2 0 15 -5 33 -12 40 -9 9 -9 12 2 12 10
0 10 4 -2 18 -19 22 -51 120 -50 150 1 12 -3 22 -8 22 -5 0 -7 7 -4 15 4 9 0
15 -9 15 -13 0 -14 6 -7 30 6 22 5 34 -6 44 -10 11 -12 21 -4 40 7 19 6 27 -5
34 -8 4 -16 24 -17 45 -3 33 -9 41 -29 39 -3 -1 -24 16 -47 37 -23 21 -42 34
-42 29 0 -6 -7 -5 -15 2 -9 8 -12 16 -6 19 13 8 -21 48 -45 53 -13 2 -19 12
-19 28 0 28 -35 72 -42 53 -3 -8 -11 -5 -24 8 -10 10 -26 19 -34 19 -21 0 -19
17 3 23 9 3 -2 3 -25 0 -39 -5 -42 -4 -49 21 -6 24 -8 25 -23 13 -21 -18 -48
-11 -54 15 -4 14 -11 19 -21 15 -10 -4 -16 -1 -16 8 0 9 -6 12 -16 8 -13 -5
-15 -2 -9 16 5 16 3 22 -7 20 -20 -3 -68 12 -68 22 0 5 -5 9 -10 9 -6 0 -20 9
-32 20 -12 10 -24 17 -28 15 -4 -2 -26 14 -50 35 -25 22 -47 40 -51 40 -4 0
-10 9 -14 20 -3 11 -12 19 -18 17 -7 -1 -11 4 -9 11 1 7 -8 16 -21 21 -34 13
-125 126 -136 169 -5 20 -15 84 -21 142 -18 173 -22 177 -85 89 -19 -27 -46
-59 -60 -71 -19 -16 -22 -24 -13 -30 10 -6 10 -10 -2 -17 -8 -5 -18 -7 -22 -5
-4 3 -8 -5 -8 -17 0 -18 2 -19 15 -9 12 10 16 10 19 -1 10 -30 12 -79 4 -79
-15 0 -30 -52 -18 -64 7 -7 10 -4 10 10 0 30 44 67 68 60 36 -12 34 -34 -4
-46 -37 -12 -46 -39 -15 -47 13 -3 17 -11 14 -24 -3 -11 -10 -16 -17 -12 -6 4
-5 -1 3 -10 8 -11 11 -28 7 -48 -7 -36 12 -60 42 -52 14 3 22 -1 27 -17 4 -12
12 -19 20 -16 19 7 38 -20 33 -48 -4 -18 -1 -22 11 -19 11 3 29 -11 49 -36 27
-33 31 -44 22 -60 -13 -25 -13 -44 0 -36 6 4 17 2 25 -5 10 -8 19 -8 33 -1 19
10 32 6 32 -11 0 -5 -5 -6 -11 -2 -8 5 -10 0 -6 -17 5 -19 -2 -33 -34 -66 -22
-24 -37 -47 -34 -53 3 -5 2 -10 -4 -10 -5 0 -19 -26 -31 -57 -12 -32 -27 -67
-34 -78 -8 -11 -17 -35 -21 -54 -4 -18 -15 -41 -24 -50 -10 -10 -34 -46 -55
-80 -46 -76 -103 -134 -122 -127 -8 3 -14 -1 -14 -9 0 -8 -4 -15 -10 -15 -5 0
-10 -5 -10 -10 0 -6 11 -3 25 6 27 18 35 5 10 -16 -12 -10 -21 -10 -40 -2 -21
10 -25 9 -25 -4 0 -10 -6 -14 -14 -11 -10 4 -13 1 -9 -9 3 -7 0 -14 -6 -14 -6
0 -11 5 -11 10 0 6 -4 10 -9 10 -5 0 -7 -9 -4 -20 5 -17 0 -20 -28 -20 -26 0
-37 -6 -44 -22 -8 -18 -18 -23 -50 -24 -31 0 -41 -4 -44 -20 -2 -10 -8 -25
-15 -33 -9 -12 -8 -12 10 -3 18 9 25 8 38 -7 24 -26 20 -34 -14 -29 -34 5 -38
-2 -11 -19 14 -9 24 -8 47 8 16 10 35 19 42 19 22 0 12 -20 -15 -31 -28 -11
-28 -11 -7 -27 24 -20 37 -59 22 -69 -7 -3 -8 -1 -4 5 5 8 -1 12 -18 12 -31 0
-42 -16 -16 -23 27 -7 25 -21 -5 -37 -19 -10 -22 -16 -14 -27 9 -10 8 -13 -3
-13 -20 0 -58 29 -58 45 0 19 -21 30 -29 16 -5 -8 -12 -7 -26 3 -18 13 -18 14
3 50 24 41 22 56 -9 56 -10 0 -19 5 -19 11 0 6 6 9 13 6 7 -3 24 2 38 10 24
14 24 14 1 9 -15 -3 -25 1 -29 10 -3 9 -13 12 -23 9 -10 -3 -21 -1 -25 5 -3 6
-11 7 -17 4 -7 -4 -8 -2 -4 5 4 6 3 18 -3 24 -15 19 -9 72 9 72 10 0 15 10 15
28 0 30 27 57 57 57 13 0 17 -7 15 -30 -2 -27 -27 -45 -27 -20 0 6 -5 10 -11
10 -6 0 -9 -6 -7 -12 5 -15 76 -29 84 -16 9 14 24 9 24 -9 0 -15 2 -15 14 -3
16 17 22 88 12 135 -4 17 -11 50 -16 75 -6 25 -12 59 -14 75 -2 17 -9 43 -15
58 -16 41 -14 53 11 54 13 1 24 7 26 13 2 5 8 10 13 10 18 0 9 -23 -18 -47
-21 -18 -25 -25 -15 -32 7 -4 12 -12 11 -17 -4 -24 3 -24 32 0 35 29 54 34 45
10 -3 -9 -6 -20 -6 -25 0 -5 -7 -9 -16 -9 -10 0 -14 -6 -10 -15 3 -9 0 -15 -8
-15 -16 0 -29 -27 -20 -41 9 -15 22 -10 29 10 4 12 12 18 21 14 8 -3 14 1 14
8 0 10 3 10 12 1 9 -9 7 -17 -9 -34 -18 -20 -20 -26 -9 -40 7 -10 18 -18 24
-18 6 0 16 -17 21 -37 12 -43 3 -53 -40 -46 -18 2 -29 0 -29 -7 0 -7 6 -10 14
-7 8 3 20 -1 26 -9 14 -16 60 -19 60 -4 0 13 47 60 80 82 33 21 77 105 63 119
-8 8 -17 7 -32 0 -22 -12 -29 -31 -11 -31 6 0 10 -9 10 -20 0 -26 -16 -26 -23
1 -8 28 -42 21 -41 -9 0 -17 -2 -19 -13 -11 -8 7 -13 8 -13 1 0 -16 27 -34 35
-22 3 5 13 10 22 10 13 0 13 -3 3 -15 -7 -8 -18 -15 -26 -15 -7 0 -15 -9 -19
-19 -3 -11 -12 -22 -20 -25 -17 -6 -20 9 -4 19 7 5 6 12 -4 23 -7 10 -21 36
-29 60 -15 37 -15 44 -2 57 11 11 20 12 34 5 24 -13 40 -13 40 0 0 5 -7 7 -15
4 -8 -4 -15 -1 -15 5 0 6 7 11 15 11 9 0 15 9 16 23 0 19 1 20 8 4 6 -16 9
-17 19 -5 9 11 8 19 -3 34 -13 16 -16 17 -24 4 -16 -24 -32 1 -23 35 9 31 32
47 32 21 0 -10 6 -13 16 -9 8 3 13 12 9 20 -3 10 -1 13 9 10 10 -4 13 -1 9 9
-3 7 -11 14 -19 14 -17 0 -17 2 -3 34 9 20 9 29 -2 42 -12 15 -14 14 -25 -1
-7 -9 -18 -14 -24 -10 -8 5 -8 0 1 -16 7 -13 12 -30 11 -36 -2 -7 3 -13 10
-13 7 0 -3 -15 -23 -33 -41 -37 -56 -67 -34 -67 8 0 15 -4 15 -10 0 -5 -4 -10
-10 -10 -5 0 -10 -9 -10 -19 0 -10 -7 -21 -14 -24 -20 -8 -31 30 -16 48 10 12
9 15 -4 15 -9 0 -17 6 -18 13 -5 39 -3 65 5 60 5 -3 15 4 23 16 9 12 26 21 40
21 15 0 24 6 24 15 0 8 -5 15 -12 15 -6 0 -19 7 -29 16 -16 14 -20 14 -43 -2
-15 -9 -29 -14 -33 -11 -9 9 23 37 44 38 10 0 27 5 38 10 16 7 13 8 -12 4 -38
-5 -42 0 -13 15 14 7 26 7 39 1 14 -8 22 -7 30 3 13 15 5 46 -12 46 -7 0 -7
-4 1 -12 17 -17 15 -27 -6 -21 -19 4 -25 43 -9 54 5 4 -4 10 -22 14 -27 6 -46
35 -22 35 5 0 12 12 15 26 4 15 10 24 13 20 4 -3 17 1 30 9 13 9 23 11 23 5 0
-5 5 -10 11 -10 6 0 8 9 4 20 -3 11 -2 20 4 20 11 0 41 56 41 77 0 7 -12 18
-26 23 -24 10 -26 14 -22 55 3 25 2 45 -2 45 -7 0 -6 22 5 145 3 33 2 53 -1
45 -4 -8 -12 -22 -19 -30 -7 -8 -16 -26 -20 -39 -4 -12 -18 -39 -31 -58 -13
-20 -24 -49 -24 -65 0 -16 -7 -36 -15 -44 -8 -9 -16 -27 -17 -42 0 -15 -2 -32
-2 -37 -2 -17 -60 -85 -72 -85 -20 0 -35 -25 -23 -37 12 -12 -19 -56 -33 -46
-5 3 -1 15 9 26 18 21 18 21 -1 7 -15 -12 -20 -12 -23 -2 -8 21 -49 13 -121
-24 -48 -25 -69 -41 -65 -50 3 -10 -3 -14 -18 -14 -30 0 -100 -32 -117 -52
-10 -13 -9 -15 12 -11 39 8 41 -16 5 -47 -28 -24 -41 -28 -77 -24 -43 4 -71
-9 -182 -82 -19 -12 -80 -42 -135 -65 -55 -24 -116 -55 -136 -71 -20 -15 -39
-25 -42 -22 -6 7 -73 -25 -142 -67 -58 -35 -96 -56 -132 -74 -18 -8 -33 -22
-33 -30 0 -8 -6 -15 -14 -15 -19 0 -136 -62 -136 -72 0 -4 -7 -8 -15 -8 -9 0
-18 -7 -21 -15 -4 -8 -11 -15 -18 -15 -6 0 -28 -16 -48 -35 l-38 -34 0 -125 0
-126 289 0 c187 0 299 4 320 11 24 9 35 9 44 0 7 -7 79 -11 222 -11 147 1 205
4 193 11 -25 14 -22 32 10 56 32 24 64 23 92 -2 24 -22 28 -57 5 -49 -8 4 -15
1 -15 -5 0 -15 162 -13 173 2 6 9 10 9 14 0 3 -9 29 -13 79 -13 48 0 73 4 69
10 -4 6 5 10 19 10 14 0 26 -4 26 -10 0 -5 16 -10 35 -10 31 0 35 2 26 17 -7
13 -4 20 12 28 12 6 23 19 25 29 2 11 0 16 -6 12 -6 -3 -13 -2 -17 4 -3 5 -1
10 4 10 6 0 11 7 11 15 0 9 7 18 16 22 12 4 14 14 10 34 -4 23 -2 29 11 29 15
0 15 1 0 18 -16 18 -20 102 -5 102 4 0 7 -3 6 -7 -2 -12 13 -46 30 -66 10 -11
11 -17 4 -17 -7 0 -12 -4 -12 -9 0 -5 9 -7 20 -4 11 3 32 -3 47 -12 23 -16 25
-16 20 -1 -4 9 -3 16 2 16 5 0 11 -9 14 -20 3 -11 1 -18 -4 -14 -5 3 -9 1 -9
-5 0 -5 4 -12 9 -16 5 -3 8 -17 5 -30 -4 -23 -2 -25 23 -19 16 4 30 11 32 16
1 5 11 2 21 -7 16 -14 17 -14 16 5 0 11 -8 25 -16 30 -22 13 -4 25 22 13 12
-5 23 -18 24 -29 11 -69 18 -90 32 -101 13 -11 13 -13 1 -13 -10 -1 -9 -5 5
-15 17 -13 22 -13 38 2 17 15 22 15 51 3 26 -12 111 -15 428 -18 l396 -3 37
41 c20 22 36 34 36 25 0 -8 -12 -26 -27 -40 l-28 -25 986 0 985 0 22 25 c29
33 74 33 100 0 l20 -25 236 0 c191 0 241 3 259 15 20 13 26 13 51 0 22 -12 73
-15 242 -15 l214 0 0 238 0 237 -109 68 c-102 63 -402 227 -415 227 -3 0 -50
21 -103 46 -194 91 -326 140 -407 150 -30 4 -58 14 -69 26 -10 10 -44 30 -75
45 -105 47 -197 85 -246 101 -41 14 -55 26 -82 67 -17 27 -57 78 -88 112 -31
33 -56 65 -56 69 0 17 -113 230 -135 254 -12 14 -29 46 -37 71 -9 25 -27 58
-42 73 -14 16 -24 32 -21 36 5 9 -23 50 -35 50 -4 0 -13 -33 -20 -72z m137
-190 c-3 -7 -5 -2 -5 12 0 14 2 19 5 13 2 -7 2 -19 0 -25z m-21 -49 c12 -20
22 -79 14 -84 -9 -6 -19 15 -30 63 -8 31 2 44 16 21z m-90 -355 c9 -24 14 -48
10 -52 -13 -12 -56 48 -56 78 0 43 25 28 46 -26z m-2341 26 c3 -5 1 -10 -4
-10 -6 0 -11 -7 -11 -15 0 -8 -4 -15 -10 -15 -5 0 -10 -7 -10 -15 0 -8 5 -15
10 -15 6 0 10 5 10 12 0 9 3 9 13 -1 10 -10 8 -15 -8 -27 -18 -13 -21 -13 -32
2 -7 10 -9 29 -6 48 8 40 34 59 48 36z m-95 -120 c0 -6 -7 -24 -15 -40 -12
-22 -25 -31 -65 -39 -65 -14 -65 -14 -50 4 7 8 18 15 26 15 7 0 16 9 19 21 9
28 85 63 85 39z m480 -5 c0 -8 -4 -15 -10 -15 -5 0 -10 7 -10 15 0 8 5 15 10
15 6 0 10 -7 10 -15z m2277 0 c9 -25 -2 -27 -22 -5 -17 18 -17 20 -1 20 9 0
19 -7 23 -15z m-2124 -90 c8 -8 18 -11 22 -7 5 4 5 1 1 -6 -4 -7 -18 -10 -33
-8 -28 6 -44 16 -24 16 7 0 9 5 6 10 -9 15 12 12 28 -5z m-953 -5 c0 -5 -4
-10 -10 -10 -5 0 -10 5 -10 10 0 6 5 10 10 10 6 0 10 -4 10 -10z m180 -20 c0
-5 -5 -10 -11 -10 -5 0 -7 5 -4 10 3 6 8 10 11 10 2 0 4 -4 4 -10z m89 -2 c0
-7 -4 -22 -9 -33 -7 -17 -9 -15 -9 13 -1 17 4 32 9 32 6 0 10 -6 9 -12z m746
2 c3 -6 -1 -7 -9 -4 -18 7 -21 14 -7 14 6 0 13 -4 16 -10z m-815 -51 c0 -6 -4
-7 -10 -4 -5 3 -10 11 -10 16 0 6 5 7 10 4 6 -3 10 -11 10 -16z m905 -21 c14
-12 -10 -10 -40 4 -14 6 -25 15 -25 19 0 9 47 -8 65 -23z m1395 28 c0 -2 -3
-11 -6 -20 -9 -23 -24 -20 -24 4 0 11 7 20 15 20 8 0 15 -2 15 -4z m-395 -26
c-10 -12 -24 -19 -31 -16 -6 2 -17 -1 -23 -7 -8 -8 -11 -8 -11 0 0 6 6 16 14
22 11 9 15 9 19 -1 3 -10 9 -9 23 5 25 24 31 22 9 -3z m480 -5 c16 -15 25 -36
25 -55 l0 -31 -23 23 c-31 30 -57 74 -50 82 11 11 24 6 48 -19z m-1545 -6 c0
-5 -4 -9 -10 -9 -5 0 -10 7 -10 16 0 8 5 12 10 9 6 -3 10 -10 10 -16z m110
-24 c13 -14 21 -25 18 -25 -2 0 -15 11 -28 25 -13 14 -21 25 -18 25 2 0 15
-11 28 -25z m897 -27 c-3 -8 -6 -5 -6 6 -1 11 2 17 5 13 3 -3 4 -12 1 -19z
m139 7 c7 -17 -14 -75 -27 -75 -5 0 -13 9 -19 21 -9 16 -8 26 5 45 18 27 33
31 41 9z m-1956 -10 c0 -8 -4 -15 -9 -15 -13 0 -22 16 -14 24 11 11 23 6 23
-9z m57 -25 c-1 -11 -5 -20 -9 -20 -4 0 -8 9 -8 20 0 11 4 20 9 20 6 0 9 -9 8
-20z m2274 3 c13 -16 12 -17 -3 -4 -17 13 -22 21 -14 21 2 0 10 -8 17 -17z
m210 7 c7 0 49 -75 49 -88 0 -2 -12 -2 -27 0 -27 3 -41 22 -58 77 -6 20 -4 23
10 18 9 -4 21 -7 26 -7z m-2598 -22 c-18 -20 -29 -17 -20 5 3 7 12 14 21 14
15 0 14 -2 -1 -19z m1038 5 c13 -16 12 -17 -3 -4 -17 13 -22 21 -14 21 2 0 10
-8 17 -17z m1894 -3 c6 -10 -51 -21 -70 -14 -8 4 -15 10 -15 15 0 10 79 9 85
-1z m-1070 -57 c-1 -32 -3 -59 -4 -60 -2 -5 -41 32 -41 39 0 8 40 78 45 78 2
0 2 -26 0 -57z m-835 -9 c0 -14 -3 -14 -15 -4 -8 7 -15 14 -15 16 0 2 7 4 15
4 8 0 15 -7 15 -16z m-1102 0 c24 -7 31 -24 9 -24 -15 0 -57 29 -42 30 6 0 20
-3 33 -6z m4050 -33 c3 -10 -2 -11 -19 -6 -39 12 -48 27 -15 23 16 -2 31 -9
34 -17z m-2983 -11 c-3 -5 -10 -10 -16 -10 -5 0 -9 5 -9 10 0 6 7 10 16 10 8
0 12 -4 9 -10z m74 -20 c12 -18 13 -22 2 -19 -8 3 -21 16 -30 29 -12 18 -13
22 -2 19 8 -3 21 -16 30 -29z m-1693 -2 c10 -15 -16 -55 -42 -67 -18 -8 -30
-8 -44 1 -27 17 -25 32 10 61 29 25 63 27 76 5z m3822 2 c31 -25 20 -40 -27
-40 -30 0 -42 6 -55 24 -14 23 -14 25 2 29 35 9 58 6 80 -13z m-888 -29 c0 -9
5 -22 12 -29 7 -7 8 -12 2 -12 -6 0 -14 3 -18 8 -4 4 -11 8 -14 8 -4 1 -17 5
-29 9 l-22 7 21 18 c25 20 48 16 48 -9z m222 -1 c8 13 9 12 5 -1 -3 -9 0 -22
6 -28 6 -6 8 -13 5 -16 -7 -7 -68 46 -68 59 0 5 9 1 21 -10 17 -16 22 -16 31
-4z m1281 -16 c10 -13 15 -29 12 -34 -11 -18 -53 -11 -79 14 -31 28 -32 36 -7
36 11 0 22 4 26 10 8 13 27 3 48 -26z m-2608 6 c3 -5 1 -10 -4 -10 -6 0 -11 5
-11 10 0 6 2 10 4 10 3 0 8 -4 11 -10z m-55 -10 c0 -5 -2 -10 -4 -10 -3 0 -8
5 -11 10 -3 6 -1 10 4 10 6 0 11 -4 11 -10z m-142 -33 c4 -22 -40 -23 -57 -3
-10 12 -8 15 11 19 33 6 43 3 46 -16z m79 17 c-3 -3 -12 -4 -19 -1 -8 3 -5 6
6 6 11 1 17 -2 13 -5z m1206 -4 c8 0 7 -4 -1 -12 -9 -9 -16 -8 -30 6 -16 18
-16 19 1 12 10 -3 24 -6 30 -6z m-2463 -20 c0 -5 -4 -10 -10 -10 -5 0 -10 5
-10 10 0 6 5 10 10 10 6 0 10 -4 10 -10z m2753 -26 c4 -1 12 -2 17 -3 6 0 9
-7 8 -13 -2 -7 2 -12 9 -11 7 2 10 -4 7 -12 -8 -20 -10 -20 -55 16 -42 33 -53
57 -16 37 12 -7 25 -13 30 -14z m-2447 -21 c-11 -11 -19 6 -11 24 8 17 8 17
12 0 3 -10 2 -21 -1 -24z m2764 24 c17 0 40 -15 40 -27 0 -15 -62 -23 -70 -10
-4 7 -12 10 -18 6 -6 -3 -13 -2 -17 4 -3 5 -1 10 5 10 7 0 9 7 6 16 -5 12 -1
14 17 8 12 -4 29 -7 37 -7z m-3042 -35 c4 -25 -13 -30 -22 -6 -3 9 -11 12 -18
8 -9 -5 -8 -2 1 9 18 22 35 17 39 -11z m1493 -8 l24 -26 -25 7 c-32 10 -51 25
-44 36 9 15 19 11 45 -17z m-1663 -27 c14 -22 14 -29 4 -36 -7 -4 -10 -15 -6
-24 3 -10 1 -17 -5 -17 -6 0 -11 6 -11 13 -1 8 -5 6 -13 -4 -11 -15 -16 -15
-50 -2 -42 17 -46 33 -16 75 28 38 72 36 97 -5z m2314 -33 c11 -24 9 -29 -16
-51 -22 -19 -31 -21 -42 -12 -20 16 -17 39 8 66 28 29 36 29 50 -3z m728 11
c14 -16 10 -18 -14 -9 -9 3 -16 10 -16 15 0 14 16 11 30 -6z m-2865 -26 c-2
-30 -29 -58 -42 -45 -4 3 -12 1 -19 -5 -9 -7 -19 -6 -33 3 -30 18 -26 31 7 25
23 -5 33 0 53 24 30 37 37 37 34 -2z m647 16 c10 -4 15 -11 12 -16 -7 -12 -74
-11 -74 1 0 6 -5 9 -11 8 -6 -2 -13 2 -16 8 -4 13 60 12 89 -1z m-1434 -12 c2
-7 -3 -13 -11 -13 -8 0 -25 -8 -37 -18 -14 -11 -33 -17 -47 -14 -26 5 -28 9
-10 26 35 35 96 46 105 19z m682 7 c0 -5 -2 -10 -4 -10 -3 0 -8 5 -11 10 -3 6
-1 10 4 10 6 0 11 -4 11 -10z m2813 -43 c24 -32 24 -33 6 -56 -26 -32 -60 -24
-81 19 -22 45 -22 43 5 56 35 18 43 16 70 -19z m925 21 c15 -15 15 -28 0 -28
-6 0 -19 -7 -29 -16 -12 -11 -27 -14 -48 -9 -44 9 -46 20 -8 44 36 23 67 27
85 9z m-698 -29 c0 -6 -7 -6 -20 1 -11 6 -20 15 -20 21 0 6 7 6 20 -1 11 -6
20 -15 20 -21z m1311 -5 c11 -14 9 -19 -11 -35 -30 -23 -56 -24 -64 -4 -3 8
-12 15 -21 15 -23 0 -18 19 8 30 35 14 73 11 88 -6z m-4111 -9 c-12 -15 -30
-12 -30 6 0 5 10 9 21 9 18 0 19 -2 9 -15z m942 -57 c10 -10 23 -18 28 -18 6
0 10 -7 10 -16 0 -12 -9 -8 -34 14 -19 17 -41 34 -48 39 -7 4 -20 17 -28 28
-12 16 -8 15 20 -5 19 -14 43 -33 52 -42z m1975 40 c-3 -8 -6 -5 -6 6 -1 11 2
17 5 13 3 -3 4 -12 1 -19z m-3094 -15 c-11 -29 -36 -50 -41 -35 -2 7 -8 9 -14
6 -6 -4 -8 1 -6 12 3 15 27 28 60 33 4 1 4 -7 1 -16z m-1083 -2 c0 -12 -20
-25 -27 -18 -7 7 6 27 18 27 5 0 9 -4 9 -9z m3039 -60 c-18 -28 -34 -49 -36
-47 -5 5 24 53 44 74 7 7 13 18 13 24 0 6 3 9 6 5 3 -3 -9 -29 -27 -56z m1196
49 c3 -5 -3 -10 -14 -10 -12 0 -21 5 -21 10 0 6 6 10 14 10 8 0 18 -4 21 -10z
m-1769 -45 c20 -14 51 -25 69 -25 43 0 67 -27 59 -68 -9 -44 -23 -53 -75 -44
-39 7 -44 11 -47 35 -2 16 -10 31 -17 33 -8 3 -11 13 -8 21 4 10 2 14 -5 9
-20 -12 -26 17 -6 32 18 14 18 14 -3 9 -22 -5 -30 3 -16 16 9 10 8 10 49 -18z
m-170 -22 c0 -12 5 -17 15 -15 17 2 33 -23 24 -39 -7 -11 -45 12 -45 27 0 7
-10 15 -22 19 l-23 7 25 8 c14 4 26 8 26 9 1 1 1 -7 0 -16z m-1684 -9 c24 -12
27 -18 17 -30 -18 -22 -72 -17 -97 9 -12 13 -20 26 -17 29 11 11 70 6 97 -8z
m478 6 c0 -5 -5 -10 -11 -10 -5 0 -7 5 -4 10 3 6 8 10 11 10 2 0 4 -4 4 -10z
m-1080 -24 c0 -8 -14 -26 -31 -40 -44 -37 -103 -34 -78 4 5 8 9 11 9 6 0 -5 9
3 21 18 23 29 79 37 79 12z m4413 -11 c33 -30 34 -40 3 -60 -30 -20 -54 -10
-85 34 -26 36 -26 39 2 44 43 8 52 6 80 -18z m-3343 5 c0 -5 -4 -10 -10 -10
-5 0 -10 5 -10 10 0 6 5 10 10 10 6 0 10 -4 10 -10z m-29 -32 c22 -28 25 -52
4 -44 -17 6 -20 -5 -5 -20 10 -10 2 -54 -11 -54 -15 0 -18 16 -10 52 6 27 5
40 -6 51 -9 8 -12 20 -9 26 10 16 15 14 37 -11z m1368 -24 c8 -19 7 -22 -4
-17 -8 3 -15 10 -15 15 0 6 -6 8 -14 5 -20 -8 -37 13 -23 28 15 16 41 1 56
-31z m541 11 c-18 -19 -36 -32 -39 -29 -3 3 2 10 12 15 9 6 17 16 17 24 0 7 8
16 18 18 9 3 19 5 21 6 3 0 -10 -15 -29 -34z m-1965 15 c3 -5 1 -10 -4 -10 -6
0 -11 5 -11 10 0 6 2 10 4 10 3 0 8 -4 11 -10z m675 -6 c0 -14 -3 -14 -15 -4
-8 7 -15 14 -15 16 0 2 7 4 15 4 8 0 15 -7 15 -16z m442 -8 c21 -15 21 -15 -4
-21 -27 -7 -94 26 -81 39 11 10 60 -1 85 -18z m1399 -20 c25 -40 24 -42 -13
-60 -43 -22 -61 -20 -88 9 -21 22 -22 28 -11 49 28 51 81 52 112 2z m-1786 14
c3 -5 1 -10 -4 -10 -6 0 -11 5 -11 10 0 6 2 10 4 10 3 0 8 -4 11 -10z m3311
-11 c40 -24 41 -28 14 -57 -27 -29 -55 -28 -85 3 -30 29 -31 43 -7 61 24 19
39 17 78 -7z m-3438 -12 c-1 -2 3 -11 11 -20 12 -15 10 -18 -10 -26 -27 -10
-48 -3 -29 9 7 4 10 15 7 23 -3 9 -1 18 6 20 13 5 21 2 15 -6z m182 3 c0 -5
-2 -10 -4 -10 -3 0 -8 5 -11 10 -3 6 -1 10 4 10 6 0 11 -4 11 -10z m1108 1
c11 -7 10 -10 -3 -15 -19 -7 -35 0 -35 15 0 11 20 12 38 0z m194 -26 c-12 -22
-27 -2 -18 22 5 12 10 13 17 6 7 -7 8 -17 1 -28z m-1349 -9 c-3 -13 1 -34 7
-47 11 -19 10 -24 -6 -36 -14 -10 -19 -10 -26 0 -13 20 -9 37 7 37 11 0 13 5
8 18 -8 15 -8 26 -4 55 0 5 5 6 10 3 4 -3 6 -16 4 -30z m-593 14 c0 -5 -2 -10
-4 -10 -3 0 -8 5 -11 10 -3 6 -1 10 4 10 6 0 11 -4 11 -10z m40 -4 c0 -2 -7
-7 -16 -10 -8 -3 -12 -2 -9 4 6 10 25 14 25 6z m733 -38 c-2 -5 1 -15 7 -23
10 -12 10 -15 -1 -15 -20 0 -43 52 -27 61 14 9 30 -10 21 -23z m887 22 c-35
-24 -54 -31 -30 -11 14 11 30 21 35 21 6 0 3 -5 -5 -10z m-335 -10 c3 -5 -1
-10 -9 -10 -9 0 -16 5 -16 10 0 6 4 10 9 10 6 0 13 -4 16 -10z m85 -3 c0 -21
-12 -28 -27 -16 -9 9 -13 8 -13 0 0 -6 -5 -11 -10 -11 -6 0 -5 8 2 20 14 22
48 27 48 7z m1560 -35 c26 -33 25 -58 -2 -66 -39 -10 -46 -7 -75 30 l-27 36
22 18 c27 22 56 16 82 -18z m-3817 16 c9 -7 21 -28 26 -46 9 -30 8 -32 -9 -27
-12 4 -23 -1 -33 -16 -12 -16 -22 -20 -39 -15 -40 10 -52 22 -43 42 5 11 9 24
10 31 0 16 35 42 56 43 8 0 23 -6 32 -12z m1495 -7 c3 -8 -1 -12 -9 -9 -7 2
-15 10 -17 17 -3 8 1 12 9 9 7 -2 15 -10 17 -17z m-683 -1 c3 -5 2 -10 -4 -10
-5 0 -13 5 -16 10 -3 6 -2 10 4 10 5 0 13 -4 16 -10z m1365 0 c0 -5 -2 -10 -4
-10 -3 0 -8 5 -11 10 -3 6 -1 10 4 10 6 0 11 -4 11 -10z m-1310 -9 c0 -17 -18
-21 -24 -6 -3 9 0 15 9 15 8 0 15 -4 15 -9z m4401 -1 c28 -16 23 -32 -6 -18
-14 6 -25 15 -25 20 0 11 7 10 31 -2z m25 -36 c19 7 17 -1 -6 -24 -38 -38 -73
-22 -76 33 l-2 28 36 -21 c19 -12 41 -19 48 -16z m-4641 16 c3 -5 1 -10 -4
-10 -6 0 -11 5 -11 10 0 6 2 10 4 10 3 0 8 -4 11 -10z m121 -17 c-8 -8 -36 5
-36 17 0 7 6 7 21 0 11 -7 18 -14 15 -17z m722 -2 c3 -8 -1 -12 -9 -9 -7 2
-15 10 -17 17 -3 8 1 12 9 9 7 -2 15 -10 17 -17z m132 -2 c0 -6 -4 -7 -10 -4
-5 3 -10 11 -10 16 0 6 5 7 10 4 6 -3 10 -11 10 -16z m-770 1 c0 -5 -4 -10
-10 -10 -5 0 -10 5 -10 10 0 6 5 10 10 10 6 0 10 -4 10 -10z m868 -4 c-2 0
-14 -10 -27 -21 -15 -12 -21 -14 -16 -5 15 26 30 38 38 33 5 -3 7 -6 5 -7z
m-973 -26 c3 -5 -3 -10 -15 -10 -12 0 -18 5 -15 10 3 6 10 10 15 10 5 0 12 -4
15 -10z"/>
<path d="M3960 1820 c0 -5 4 -10 9 -10 6 0 13 5 16 10 3 6 -1 10 -9 10 -9 0
-16 -4 -16 -10z"/>
<path d="M3741 1794 c0 -11 3 -14 6 -6 3 7 2 16 -1 19 -3 4 -6 -2 -5 -13z"/>
<path d="M1815 1450 c3 -5 8 -10 11 -10 2 0 4 5 4 10 0 6 -5 10 -11 10 -5 0
-7 -4 -4 -10z"/>
<path d="M1800 1414 c-12 -13 -11 -17 1 -25 11 -8 10 -13 -11 -31 -15 -13 -18
-19 -8 -15 24 9 35 -13 14 -29 -13 -9 -16 -19 -11 -35 5 -14 4 -19 -4 -15 -21
13 -11 -10 14 -34 26 -25 25 -25 29 23 1 6 5 15 10 18 5 4 5 12 1 19 -4 7 -9
39 -10 72 -3 68 -7 75 -25 52z"/>
<path d="M1840 1255 c0 -9 7 -18 15 -21 8 -4 15 -12 15 -20 0 -8 4 -14 9 -14
11 0 3 39 -12 58 -13 17 -27 15 -27 -3z"/>
<path d="M1931 1254 c0 -11 3 -14 6 -6 3 7 2 16 -1 19 -3 4 -6 -2 -5 -13z"/>
<path d="M1960 1266 c0 -2 8 -10 18 -17 15 -13 16 -12 3 4 -13 16 -21 21 -21
13z"/>
<path d="M2015 1190 c-3 -5 -1 -10 4 -10 6 0 11 5 11 10 0 6 -2 10 -4 10 -3 0
-8 -4 -11 -10z"/>
<path d="M2010 1150 c0 -5 5 -10 10 -10 6 0 10 5 10 10 0 6 -4 10 -10 10 -5 0
-10 -4 -10 -10z"/>
<path d="M1766 1120 c-5 -7 -9 -31 -7 -51 1 -26 -3 -40 -14 -46 -13 -8 -14
-15 -6 -36 14 -35 25 -35 17 1 -4 15 -3 22 1 16 8 -12 37 -12 66 1 32 14 11
97 -23 88 -13 -4 -19 2 -22 19 -2 18 -5 20 -12 8z m45 -103 c-16 -16 -25 -1
-10 16 8 8 16 11 18 5 2 -5 -2 -15 -8 -21z"/>
<path d="M1841 1094 c0 -11 3 -14 6 -6 3 7 2 16 -1 19 -3 4 -6 -2 -5 -13z"/>
<path d="M1990 1075 c-8 -9 -8 -15 -2 -15 12 0 26 19 19 26 -2 2 -10 -2 -17
-11z"/>
<path d="M2107 1046 c-4 -10 -1 -13 9 -9 15 6 19 23 5 23 -5 0 -11 -7 -14 -14z"/>
<path d="M1995 1000 c3 -5 8 -10 11 -10 2 0 4 5 4 10 0 6 -5 10 -11 10 -5 0
-7 -4 -4 -10z"/>
<path d="M1847 936 c-3 -8 1 -20 9 -27 21 -17 29 -4 11 21 -12 17 -16 18 -20
6z"/>
<path d="M1824 869 c-3 -6 -2 -14 3 -18 5 -3 15 -15 21 -26 10 -17 11 -17 12
-3 0 9 -5 20 -11 23 -6 4 -8 13 -5 21 6 17 -10 19 -20 3z"/>
<path d="M1900 779 c0 -5 5 -7 10 -4 6 3 10 8 10 11 0 2 -4 4 -10 4 -5 0 -10
-5 -10 -11z"/>
<path d="M1854 729 c-3 -6 -1 -16 5 -22 8 -8 11 -5 11 11 0 24 -5 28 -16 11z"/>
<path d="M1776 675 c-18 -27 -18 -27 6 -20 31 10 31 11 21 30 -9 14 -12 13
-27 -10z"/>
<path d="M1566 551 c-12 -5 -15 -10 -9 -14 6 -4 16 0 23 8 14 17 13 17 -14 6z"/>
<path d="M1800 525 c0 -8 5 -15 10 -15 6 0 10 7 10 15 0 8 -4 15 -10 15 -5 0
-10 -7 -10 -15z"/>
<path d="M1560 504 c0 -8 5 -12 10 -9 6 4 8 11 5 16 -9 14 -15 11 -15 -7z"/>
<path d="M1477 337 c-11 -29 -9 -43 4 -30 6 6 9 19 7 29 -3 18 -4 18 -11 1z"/>
<path d="M1460 275 c0 -8 2 -15 4 -15 2 0 6 7 10 15 3 8 1 15 -4 15 -6 0 -10
-7 -10 -15z"/>
<path d="M1480 201 c0 -20 28 -62 35 -52 3 6 3 15 0 21 -4 6 1 7 11 3 12 -4
15 -3 10 5 -4 7 -14 12 -22 12 -8 0 -14 5 -14 10 0 6 -4 10 -10 10 -5 0 -10
-4 -10 -9z"/>
<path d="M1570 156 c0 -9 5 -16 10 -16 6 0 10 4 10 9 0 6 -4 13 -10 16 -5 3
-10 -1 -10 -9z"/>
<path d="M1760 124 c0 -8 5 -12 10 -9 6 3 10 10 10 16 0 5 -4 9 -10 9 -5 0
-10 -7 -10 -16z"/>
<path d="M1500 100 c0 -13 7 -20 19 -20 14 0 18 5 14 20 -3 11 -12 20 -19 20
-8 0 -14 -9 -14 -20z"/>
<path d="M1660 95 c0 -9 6 -12 15 -9 8 4 12 10 9 15 -8 14 -24 10 -24 -6z"/>
<path d="M1771 81 c-14 -4 -26 -12 -29 -20 -3 -10 0 -11 14 -3 11 5 31 9 47 7
18 -2 27 1 27 11 0 15 -19 16 -59 5z"/>
<path d="M1870 60 c0 -23 25 -27 33 -6 7 16 -1 26 -20 26 -7 0 -13 -9 -13 -20z"/>
<path d="M1680 50 c0 -10 41 -31 49 -24 6 5 -26 34 -38 34 -6 0 -11 -5 -11
-10z"/>
<path d="M1841 35 c-1 -15 -3 -17 -10 -6 -5 7 -15 11 -22 9 -10 -3 -7 -9 9
-17 27 -15 36 -10 29 16 -4 16 -5 16 -6 -2z"/>
<path d="M1633 33 c-18 -7 -16 -33 2 -33 8 0 15 9 15 20 0 11 -1 20 -2 19 -2
0 -9 -3 -15 -6z"/>
</g>
</svg>
